# xmcd
#
# Track frame offsets:
#	150
#	2194
#	18277
#	36903
#	50806
#	67643
#	81566
#	107701
#	130837
#	157953
#
# Disc length: 2237 seconds
# Revision: 0
# Processed by: cddbd v1.5.2PL0 Copyright (c) Steve Scherf et al.
# Submitted via: dBpowerAMP V12.0
#
DISCID=7a08bb0a
DTITLE=Various Artist - Jimi Hocking and Rebecca Daveywith Dreamboogie Live at The Royal Standard Hotel
DYEAR=2013
DGENRE=Blues
TTITLE0=Jimi Hocking and Rebecca Davey With Dreamboogie - Introduction
TTITLE1=Jimi Hocking and Rebecca Davey With Dreamboogie - Wang Dang Doodle
TTITLE2=Jimi Hocking and Rebecca Davey With Dreamboogie - Here we go Again
TTITLE3=Jimi Hocking and Rebecca Davey With Dreamboogie - Tell me Where Tell me When
TTITLE4=Jimi Hocking and Rebecca Davey With Dreamboogie - Wasting Time in Georgia
TTITLE5=Jimi Hocking and Rebecca Davey With Dreamboogie - Lonesome Day Blues
TTITLE6=Jimi Hocking and Rebecca Davey With Dreamboogie - When The Lvee Breaks
TTITLE7=Jimi Hocking and Rebecca Davey With Dreamboogie - The Golden Rule
TTITLE8=Jimi Hocking and Rebecca Davey With Dreamboogie - Voodoo Chile
TTITLE9=Jimi Hocking and Rebecca Davey With The Mick The Fatman From 88.9 Southern fm Melbourne Australia - Rebecca and Jimi  Interview
EXTD=
EXTT0=
EXTT1=
EXTT2=
EXTT3=
EXTT4=
EXTT5=
EXTT6=
EXTT7=
EXTT8=
EXTT9=
PLAYORDER=
